HIERARCHY
ROOT Hips
{
	OFFSET 0.000000 0.000000 0.000000
	CHANNELS 6 Xposition Yposition Zposition Zrotation Yrotation Xrotation 
	JOINT LHipJoint
	{
		OFFSET 0.000000 0.000000 0.000000
		CHANNELS 3 Zrotation Yrotation Xrotation
		JOINT LeftUpLeg
		{
			OFFSET 1.363060 -1.794630 0.839290
			CHANNELS 3 Zrotation Yrotation Xrotation
			JOINT LeftLeg
			{
				OFFSET 2.448110 -6.726130 0.000000
				CHANNELS 3 Zrotation Yrotation Xrotation
				JOINT LeftFoot
				{
					OFFSET 2.562200 -7.039590 0.000000
					CHANNELS 3 Zrotation Yrotation Xrotation
					JOINT LeftToeBase
					{
						OFFSET 0.157640 -0.433110 2.322550
						CHANNELS 3 Zrotation Yrotation Xrotation
						End Site
						{
							OFFSET 0.000000 0.000000 0.000000
						}
					}
				}
			}
		}
	}
	JOINT RHipJoint
	{
		OFFSET 0.000000 0.000000 0.000000
		CHANNELS 3 Zrotation Yrotation Xrotation
		JOINT RightUpLeg
		{
			OFFSET -1.305520 -1.794630 0.839290
			CHANNELS 3 Zrotation Yrotation Xrotation
			JOINT RightLeg
			{
				OFFSET -2.542530 -6.985550 0.000000
				CHANNELS 3 Zrotation Yrotation Xrotation
				JOINT RightFoot
				{
					OFFSET -2.568260 -7.056230 0.000000
					CHANNELS 3 Zrotation Yrotation Xrotation
					JOINT RightToeBase
					{
						OFFSET -0.164730 -0.452590 2.363150
						CHANNELS 3 Zrotation Yrotation Xrotation
						End Site
						{
							OFFSET 0.000000 0.000000 0.000000
						}
					}
				}
			}
		}
	}
	JOINT LowerBack
	{
		OFFSET 0.000000 0.000000 0.000000
		CHANNELS 3 Zrotation Yrotation Xrotation
		JOINT Spine
		{
			OFFSET 0.028270 2.035590 -0.193380
			CHANNELS 3 Zrotation Yrotation Xrotation
			JOINT Spine1
			{
				OFFSET 0.056720 2.048850 -0.042750
				CHANNELS 3 Zrotation Yrotation Xrotation
				JOINT Neck
				{
					OFFSET 0.000000 0.000000 0.000000
					CHANNELS 3 Zrotation Yrotation Xrotation
					JOINT Neck1
					{
						OFFSET -0.054170 1.746240 0.172020
						CHANNELS 3 Zrotation Yrotation Xrotation
						JOINT Head
						{
							OFFSET 0.104070 1.761360 -0.123970
							CHANNELS 3 Zrotation Yrotation Xrotation
							End Site
							{
								OFFSET 0.000000 0.000000 0.000000
							}
						}
					}
				}
				JOINT LeftShoulder
				{
					OFFSET 0.000000 0.000000 0.000000
					CHANNELS 3 Zrotation Yrotation Xrotation
					JOINT LeftArm
					{
						OFFSET 3.362410 1.200890 -0.311210
						CHANNELS 3 Zrotation Yrotation Xrotation
						JOINT LeftForeArm
						{
							OFFSET 4.983000 -0.000000 -0.000000
							CHANNELS 3 Zrotation Yrotation Xrotation
							JOINT LeftHand
							{
								OFFSET 3.483560 -0.000000 -0.000000
								CHANNELS 3 Zrotation Yrotation Xrotation
								JOINT LeftFingerBase
								{
									OFFSET 0.000000 0.000000 0.000000
									CHANNELS 3 Zrotation Yrotation Xrotation
									JOINT LeftHandIndex1
									{
										OFFSET 0.715260 -0.000000 -0.000000
										CHANNELS 3 Zrotation Yrotation Xrotation
										End Site
										{
											OFFSET 0.000000 0.000000 0.000000
										}
									}
								}
								JOINT LThumb
								{
									OFFSET 0.000000 0.000000 0.000000
									CHANNELS 3 Zrotation Yrotation Xrotation
									End Site
									{
										OFFSET 0.000000 0.000000 0.000000
									}
								}
							}
						}
					}
				}
				JOINT RightShoulder
				{
					OFFSET 0.000000 0.000000 0.000000
					CHANNELS 3 Zrotation Yrotation Xrotation
					JOINT RightArm
					{
						OFFSET -3.136600 1.374050 -0.404650
						CHANNELS 3 Zrotation Yrotation Xrotation
						JOINT RightForeArm
						{
							OFFSET -5.241900 -0.000000 -0.000000
							CHANNELS 3 Zrotation Yrotation Xrotation
							JOINT RightHand
							{
								OFFSET -3.444170 -0.000000 -0.000000
								CHANNELS 3 Zrotation Yrotation Xrotation
								JOINT RightFingerBase
								{
									OFFSET 0.000000 0.000000 0.000000
									CHANNELS 3 Zrotation Yrotation Xrotation
									JOINT RightHandIndex1
									{
										OFFSET -0.622530 -0.000000 -0.000000
										CHANNELS 3 Zrotation Yrotation Xrotation
										End Site
										{
											OFFSET 0.000000 0.000000 0.000000
										}
									}
								}
								JOINT RThumb
								{
									OFFSET 0.000000 0.000000 0.000000
									CHANNELS 3 Zrotation Yrotation Xrotation
									End Site
									{
										OFFSET 0.000000 0.000000 0.000000
									}
								}
							}
						}
					}
				}
			}
		}
	}
}
MOTION
Frames: 4
Frame Time: 0.008333
5.091572 22.603512 3.509518 -119.340015 -86.041086 136.712009 22.964366 1.033648 -3.471170 -29.520033 -20.842750 -51.177556 1.277717 29.320405 56.634606 2.088694 -29.095975 -22.897734 1.166800 -6.857100 -19.292600 -22.224780 -3.426772 -4.500412 44.327771 15.954489 4.469459 14.194555 -1.426520 3.628564 -0.693689 -17.466624 -16.856355 -0.000100 -0.073500 0.201800 -0.709097 0.939047 20.213664 0.091001 1.287878 -3.727998 -0.666107 0.466075 -16.480138 -1.494105 -1.589744 -18.919353 4.141744 -4.435082 25.094196 0.480700 -2.191500 20.030100 7.234498 -6.137879 0.717121 -78.611236 8.145155 30.873829 46.598015 -50.803501 -21.597818 -0.579762 1.927903 -2.337267 34.826684 26.756150 16.223000 -7.125000 0.000000 0.000000 7.011800 58.682900 2.353000 -8.531900 6.581245 1.057537 57.645798 -4.317327 33.071867 -57.773142 55.901854 -27.875922 1.249224 -1.910962 -16.580358 -23.056007 -18.256228 6.821400 7.125000 0.000000 0.000000 3.766300 -47.092200 -0.194700 
4.929954 22.821105 3.529734 -116.703511 -85.611564 134.622685 22.726919 0.919726 -3.594034 -29.360793 -20.068387 -49.653754 0.230154 28.486181 54.061929 1.984303 -28.615996 -22.094050 1.102100 -6.670600 -18.743200 -22.056782 -3.461844 -4.464229 43.790124 14.898207 3.063843 14.168656 -1.853135 4.234600 -0.465058 -19.575152 -16.034196 -0.145100 -2.454600 6.763800 -0.471934 0.931044 20.124873 0.125399 1.331124 -3.740531 -0.672888 0.474399 -16.433541 -1.421652 -1.603654 -18.981580 4.307784 -4.508907 25.121530 0.574600 -2.190800 20.082500 7.228241 -6.126237 0.694132 -78.389422 7.338776 30.835321 46.719594 -50.843272 -21.717980 -0.574979 1.919102 -2.251969 35.178698 26.962223 16.545900 -7.125000 0.000000 0.000000 7.409100 59.004100 2.544300 -8.543562 6.602454 1.064621 57.830196 -4.982965 32.937406 -57.972156 55.962897 -28.046232 1.251186 -1.914663 -16.595159 -23.231664 -18.345052 6.911300 7.125000 0.000000 0.000000 3.614200 -47.202700 -0.196700 
4.770618 23.033154 3.552341 -115.594562 -85.073186 133.952775 22.448223 0.848044 -3.692229 -29.167513 -19.148039 -48.067623 -0.776560 27.565128 51.509514 1.859245 -28.184221 -21.112308 1.001500 -6.368400 -17.857200 -21.809984 -3.515710 -4.497009 43.078592 12.822019 0.902637 14.019382 -2.795927 5.887624 -0.182549 -21.603878 -14.251109 -0.273900 -3.366200 9.300000 -0.194117 0.944237 20.097905 0.161193 1.409172 -3.744211 -0.698549 0.501108 -16.377660 -1.317084 -1.551452 -19.117994 4.477750 -4.514662 25.236865 0.678100 -2.163400 20.237800 7.224557 -6.112136 0.670944 -78.227154 6.637175 30.644337 46.864281 -50.887482 -21.846119 -0.578242 1.912019 -2.348122 35.324629 27.083108 16.703800 -7.125000 0.000000 0.000000 7.571400 59.180400 2.632500 -8.549528 6.627308 1.072236 57.931321 -5.650062 32.975923 -58.009127 55.972869 -28.075400 1.249512 -1.917584 -16.217631 -23.136680 -18.412204 6.913800 7.125000 0.000000 0.000000 3.706500 -47.265400 -0.207500 
4.614761 23.233465 3.576578 -115.894228 -84.482728 134.575135 22.136701 0.824498 -3.767344 -29.001937 -18.114457 -46.428904 -1.718625 26.577036 49.035885 1.736593 -27.788564 -20.040515 0.886000 -6.000100 -16.784800 -21.516783 -3.556409 -4.583252 42.317556 9.999935 -1.928456 13.669406 -4.284224 8.740173 0.088296 -23.375492 -10.821332 -0.122700 -2.258200 6.219900 0.070004 0.976895 20.125979 0.193660 1.507129 -3.737974 -0.746658 0.542665 -16.312744 -1.099753 -1.420433 -19.313031 4.565225 -4.451383 25.416897 0.711100 -2.099800 20.467000 7.226764 -6.097699 0.647929 -78.089930 6.045939 30.354821 47.038462 -50.939508 -21.988445 -0.585832 1.906474 -2.589936 35.336011 27.063991 16.700900 -7.125000 0.000000 0.000000 7.586600 59.165700 2.635200 -8.547262 6.652033 1.079773 57.979923 -6.299699 33.145833 -57.846877 55.923125 -27.940621 1.243022 -1.921238 -15.500561 -22.832969 -18.451186 6.843200 7.125000 0.000000 0.000000 3.986500 -47.279100 -0.224500 
